<svg width="74" height="24" viewBox="0 0 74 24" fill="none" xmlns="http://www.w3.org/2000/svg">
<g clip-path="url(#clip0_1_8)">
<path d="M0.6 23L7.2 1.4H13.29L19.89 23H15.69L9.81 3.95H10.59L4.8 23H0.6ZM4.56 18.5V14.69H15.96V18.5H4.56ZM29.1485 23.45C27.6585 23.45 26.3535 23.075 25.2335 22.325C24.1135 21.575 23.2385 20.555 22.6085 19.265C21.9885 17.975 21.6785 16.52 21.6785 14.9C21.6785 13.25 21.9935 11.785 22.6235 10.505C23.2635 9.215 24.1585 8.2 25.3085 7.46C26.4585 6.72 27.8085 6.35 29.3585 6.35C30.8985 6.35 32.1935 6.725 33.2435 7.475C34.2935 8.225 35.0885 9.245 35.6285 10.535C36.1685 11.825 36.4385 13.28 36.4385 14.9C36.4385 16.52 36.1635 17.975 35.6135 19.265C35.0735 20.555 34.2635 21.575 33.1835 22.325C32.1035 23.075 30.7585 23.45 29.1485 23.45ZM29.8085 19.82C30.7185 19.82 31.4435 19.615 31.9835 19.205C32.5335 18.795 32.9285 18.22 33.1685 17.48C33.4085 16.74 33.5285 15.88 33.5285 14.9C33.5285 13.92 33.4085 13.06 33.1685 12.32C32.9285 11.58 32.5435 11.005 32.0135 10.595C31.4935 10.185 30.8085 9.98 29.9585 9.98C29.0485 9.98 28.2985 10.205 27.7085 10.655C27.1285 11.095 26.6985 11.69 26.4185 12.44C26.1385 13.18 25.9985 14 25.9985 14.9C25.9985 15.81 26.1335 16.64 26.4035 17.39C26.6735 18.13 27.0885 18.72 27.6485 19.16C28.2085 19.6 28.9285 19.82 29.8085 19.82ZM33.5285 23V11.9H33.0185V1.4H37.1285V23H33.5285ZM48.8585 23.45C47.1985 23.45 45.7335 23.095 44.4635 22.385C43.2035 21.665 42.2135 20.68 41.4935 19.43C40.7835 18.17 40.4285 16.73 40.4285 15.11C40.4285 13.34 40.7785 11.8 41.4785 10.49C42.1785 9.18 43.1435 8.165 44.3735 7.445C45.6035 6.715 47.0185 6.35 48.6185 6.35C50.3185 6.35 51.7635 6.75 52.9535 7.55C54.1435 8.35 55.0235 9.475 55.5935 10.925C56.1635 12.375 56.3635 14.08 56.1935 16.04H52.1585V14.54C52.1585 12.89 51.8935 11.705 51.3635 10.985C50.8435 10.255 49.9885 9.89 48.7985 9.89C47.4085 9.89 46.3835 10.315 45.7235 11.165C45.0735 12.005 44.7485 13.25 44.7485 14.9C44.7485 16.41 45.0735 17.58 45.7235 18.41C46.3835 19.23 47.3485 19.64 48.6185 19.64C49.4185 19.64 50.1035 19.465 50.6735 19.115C51.2435 18.765 51.6785 18.26 51.9785 17.6L56.0585 18.77C55.4485 20.25 54.4835 21.4 53.1635 22.22C51.8535 23.04 50.4185 23.45 48.8585 23.45ZM43.4885 16.04V13.01H54.2285V16.04H43.4885ZM57.1945 23L62.9845 14.81L57.3145 6.8H62.1145L65.3545 11.6L68.5345 6.8H73.3345L67.6645 14.81L73.4845 23H68.6845L65.3545 18.02L61.9945 23H57.1945Z" fill="white"/>
</g>
<defs>
<clipPath id="clip0_1_8">
<rect width="74" height="24" fill="white"/>
</clipPath>
</defs>
</svg>
